# xmcd
#
# Track frame offsets: 
#        150
#        19400
#        43435
#        73505
#        93350
#        127110
#        157080
#        191105
#
# Disc length: 2787 seconds
#
# Revision: 0
# Processed by: cddbd v1.5.2PL0 Copyright (c) Steve Scherf et al.
# Submitted via: ExactAudioCopy v0.95b4
#
DISCID=780ae108
DTITLE=Burt, Kevin "B.F." - 2001 Folklife Festival
DYEAR=2001
DGENRE=Blues
TTITLE0=Phone Booth
TTITLE1=Checkin' On My Baby
TTITLE2=I Ain't Got No Problem With 
TTITLE3=Mary Had A Little Lamb
TTITLE4=Ain't No Sunshine When She's Gone
TTITLE5=Chain Of Fools
TTITLE6=Only You
TTITLE7=You Love Me Like You Say
EXTD=
EXTT0=
EXTT1=
EXTT2=
EXTT3=
EXTT4=
EXTT5=
EXTT6=
EXTT7=
PLAYORDER=
